<svg xmlns="http://www.w3.org/2000/svg" viewBox="0 0 192 192" width="192" height="192">
  <rect width="192" height="192" rx="32" fill="#01012b"/>
  <rect x="12" y="12" width="168" height="168" rx="24" fill="none" stroke="#05d9e8" stroke-width="3" opacity="0.4"/>
  <!-- Grid çizgileri -->
  <line x1="12" y1="52" x2="180" y2="52" stroke="#05d9e8" stroke-width="0.5" opacity="0.15"/>
  <line x1="12" y1="92" x2="180" y2="92" stroke="#05d9e8" stroke-width="0.5" opacity="0.15"/>
  <line x1="12" y1="132" x2="180" y2="132" stroke="#05d9e8" stroke-width="0.5" opacity="0.15"/>
  <line x1="52" y1="12" x2="52" y2="180" stroke="#05d9e8" stroke-width="0.5" opacity="0.15"/>
  <line x1="92" y1="12" x2="92" y2="180" stroke="#05d9e8" stroke-width="0.5" opacity="0.15"/>
  <line x1="132" y1="12" x2="132" y2="180" stroke="#05d9e8" stroke-width="0.5" opacity="0.15"/>
  <!-- Tile'lar -->
  <rect x="22" y="62" width="44" height="44" rx="6" fill="#00ff9f" opacity="0.9"/>
  <rect x="74" y="62" width="44" height="44" rx="6" fill="#f5c400" opacity="0.9"/>
  <rect x="126" y="62" width="44" height="44" rx="6" fill="#12123a" stroke="#05d9e8" stroke-width="1.5"/>
  <rect x="22" y="114" width="44" height="44" rx="6" fill="#12123a" stroke="#05d9e8" stroke-width="1.5"/>
  <rect x="74" y="114" width="44" height="44" rx="6" fill="#00ff9f" opacity="0.9"/>
  <rect x="126" y="114" width="44" height="44" rx="6" fill="#12123a" stroke="#05d9e8" stroke-width="1.5"/>
  <!-- K harfi -->
  <text x="96" y="50" font-family="Arial Black, sans-serif" font-size="26" font-weight="900" fill="#05d9e8" text-anchor="middle" letter-spacing="4">KOD</text>
</svg>
